<?xml version="1.0" encoding="utf-8"?>
<!-- Generator: Adobe Illustrator 23.0.1, SVG Export Plug-In . SVG Version: 6.00 Build 0)  -->
<svg version="1.1" id="Layer_1" xmlns="http://www.w3.org/2000/svg" xmlns:xlink="http://www.w3.org/1999/xlink" x="0px" y="0px"
	 viewBox="0 0 504 360" style="enable-background:new 0 0 504 360;" xml:space="preserve">
<style type="text/css">
	.st0{fill:#3EA5D8;}
	.st1{fill:#414F4E;}
</style>
<circle class="st0" cx="200.21" cy="79.85" r="11.44"/>
<circle class="st1" cx="270.45" cy="264.71" r="7.35"/>
<circle class="st1" cx="360.49" cy="264.71" r="7.35"/>
<circle class="st1" cx="259.43" cy="158.13" r="7.35"/>
<path class="st1" d="M270.93,180.28h105.17l-7.08,73.82H265.88l-10.11-76.86c0,0-2.02-8.09,8.09-8.09c6.07,0,6.07,4.05,6.07,4.05
	L270.93,180.28z"/>
<g>
	<path class="st0" d="M248.4,112.81v34.05c-11.93-7.46-25.1-14.91-42.26-14.91c-12.93,0-27.34,5.47-27.34,18.15
		c0,10.94,10.94,15.16,24.86,20.88l20.38,8.45c23.36,9.94,33.8,24.11,33.8,42.5c0,29.58-28.58,50.71-63.14,50.71
		c-19.39,0-38.03-7.95-51.45-17.4v-34.05c14.42,10.44,32.31,18.89,52.2,18.89c13.92,0,25.35-5.47,25.35-16.41
		c0-8.7-9.69-13.92-19.39-17.4l-25.6-9.94c-25.85-9.94-33.06-26.84-33.06-46.23c0-30.57,28.09-50.46,59.16-50.46
		C221.3,99.64,237.71,105.85,248.4,112.81z"/>
</g>
</svg>
